<?xml version="1.0" encoding="UTF-8"?>
<svg xmlns="http://www.w3.org/2000/svg" style="display: none;">
    <!-- Navigation Icons -->
    <symbol id="icon-home" viewBox="0 0 24 24">
        <path d="M12 3L4 9v12h5v-7h6v7h5V9z"/>
    </symbol>
    
    <symbol id="icon-popular" viewBox="0 0 24 24">
        <path d="M16 6l2.29 2.29-4.88 4.88-4-4L2 16.59 3.41 18l6-6 4 4 6.3-6.29L22 12V6z"/>
    </symbol>
    
    <symbol id="icon-all" viewBox="0 0 24 24">
        <path d="M4 14h4v-4H4v4zm0 5h4v-4H4v4zM4 9h4V5H4v4zm5 5h12v-4H9v4zm0 5h12v-4H9v4zM9 5v4h12V5H9z"/>
    </symbol>

    <!-- Post Actions -->
    <symbol id="icon-comment" viewBox="0 0 24 24">
        <path d="M21.99 4c0-1.1-.89-2-1.99-2H4c-1.1 0-2 .9-2 2v12c0 1.1.9 2 2 2h14l4 4-.01-18z"/>
    </symbol>

    <symbol id="icon-share" viewBox="0 0 24 24">
        <path d="M18 16.08c-.76 0-1.44.3-1.96.77L8.91 12.7c.05-.23.09-.46.09-.7s-.04-.47-.09-.7l7.05-4.11c.54.5 1.25.81 2.04.81 1.66 0 3-1.34 3-3s-1.34-3-3-3-3 1.34-3 3c0 .24.04.47.09.7L8.04 9.81C7.5 9.31 6.79 9 6 9c-1.66 0-3 1.34-3 3s1.34 3 3 3c.79 0 1.5-.31 2.04-.81l7.12 4.16c-.05.21-.08.43-.08.65 0 1.61 1.31 2.92 2.92 2.92s2.92-1.31 2.92-2.92-1.31-2.92-2.92-2.92z"/>
    </symbol>

    <symbol id="icon-upvote" viewBox="0 0 24 24">
        <path d="M4 14h4v7a1 1 0 0 0 1 1h6a1 1 0 0 0 1-1v-7h4a1.001 1.001 0 0 0 .781-1.625l-8-10c-.381-.475-1.181-.475-1.562 0l-8 10A1.001 1.001 0 0 0 4 14z"/>
    </symbol>

    <symbol id="icon-downvote" viewBox="0 0 24 24">
        <path d="M20 10h-4V3a1 1 0 0 0-1-1H9a1 1 0 0 0-1 1v7H4a1.001 1.001 0 0 0-.781 1.625l8 10c.381.475 1.181.475 1.562 0l8-10A1.001 1.001 0 0 0 20 10z"/>
    </symbol>

    <!-- Header Icons -->
    <symbol id="icon-search" viewBox="0 0 24 24">
        <path d="M15.5 14h-.79l-.28-.27A6.471 6.471 0 0 0 16 9.5 6.5 6.5 0 1 0 9.5 16c1.61 0 3.09-.59 4.23-1.57l.27.28v.79l5 4.99L20.49 19l-4.99-5zm-6 0C7.01 14 5 11.99 5 9.5S7.01 5 9.5 5 14 7.01 14 9.5 11.99 14 9.5 14z"/>
    </symbol>

    <symbol id="icon-create" viewBox="0 0 24 24">
        <path d="M19 13h-6v6h-2v-6H5v-2h6V5h2v6h6v2z"/>
    </symbol>

    <symbol id="icon-notification" viewBox="0 0 24 24">
        <path d="M12 22c1.1 0 2-.9 2-2h-4c0 1.1.9 2 2 2zm6-6v-5c0-3.07-1.63-5.64-4.5-6.32V4c0-.83-.67-1.5-1.5-1.5s-1.5.67-1.5 1.5v.68C7.64 5.36 6 7.92 6 11v5l-2 2v1h16v-1l-2-2zm-2 1H8v-6c0-2.48 1.51-4.5 4-4.5s4 2.02 4 4.5v6z"/>
    </symbol>

    <symbol id="icon-message" viewBox="0 0 24 24">
        <path d="M20 4H4c-1.1 0-1.99.9-1.99 2L2 18c0 1.1.9 2 2 2h16c1.1 0 2-.9 2-2V6c0-1.1-.9-2-2-2zm0 4l-8 5-8-5V6l8 5 8-5v2z"/>
    </symbol>

    <!-- Post Meta Icons -->
    <symbol id="icon-more" viewBox="0 0 24 24">
        <path d="M6 10c-1.1 0-2 .9-2 2s.9 2 2 2 2-.9 2-2-.9-2-2-2zm12 0c-1.1 0-2 .9-2 2s.9 2 2 2 2-.9 2-2-.9-2-2-2zm-6 0c-1.1 0-2 .9-2 2s.9 2 2 2 2-.9 2-2-.9-2-2-2z"/>
    </symbol>

    <symbol id="icon-dropdown" viewBox="0 0 24 24">
        <path d="M7 10l5 5 5-5z"/>
    </symbol>

    <!-- Additional UI Icons -->
    <symbol id="icon-close" viewBox="0 0 24 24">
        <path d="M19 6.41L17.59 5 12 10.59 6.41 5 5 6.41 10.59 12 5 17.59 6.41 19 12 13.41 17.59 19 19 17.59 13.41 12z"/>
    </symbol>

    <symbol id="icon-check" viewBox="0 0 24 24">
        <path d="M9 16.17L4.83 12l-1.42 1.41L9 19 21 7l-1.41-1.41z"/>
    </symbol>
</svg> 